<svg width="22" height="13" viewBox="0 0 22 13" fill="none" xmlns="http://www.w3.org/2000/svg">
<path d="M3.0507 0.929474C2.45947 0.349187 1.50976 0.358063 0.929474 0.949298C0.349187 1.54053 0.358063 2.49024 0.949298 3.07053L3.0507 0.929474ZM11.1698 11L10.1191 12.0705C10.4031 12.3492 10.7861 12.5037 11.184 12.4999C11.5818 12.4962 11.9619 12.3345 12.2405 12.0505L11.1698 11ZM21.0707 3.05051C21.6509 2.45917 21.6418 1.50947 21.0505 0.929287C20.4592 0.349106 19.5095 0.35815 18.9293 0.949489L21.0707 3.05051ZM0.949298 3.07053L10.1191 12.0705L12.2205 9.92947L3.0507 0.929474L0.949298 3.07053ZM12.2405 12.0505L21.0707 3.05051L18.9293 0.949489L10.0991 9.94949L12.2405 12.0505Z" fill="#2E3D62"/>
</svg>
