<svg width="8" height="16" viewBox="0 0 8 16" fill="none" xmlns="http://www.w3.org/2000/svg">
<path d="M6.84659 5.09091V7.07955H0.397727V5.09091H6.84659ZM2.00994 16V4.06108C2.00994 3.32718 2.16146 2.71638 2.46449 2.22869C2.77225 1.741 3.18419 1.37642 3.70028 1.13494C4.21638 0.893465 4.7893 0.772726 5.41903 0.772726C5.86411 0.772726 6.25947 0.808238 6.60511 0.879261C6.95076 0.950284 7.20644 1.0142 7.37216 1.07102L6.8608 3.05966C6.75189 3.02651 6.61458 2.99337 6.44886 2.96023C6.28314 2.92235 6.09848 2.90341 5.89489 2.90341C5.41667 2.90341 5.07813 3.01941 4.87926 3.25142C4.68513 3.47869 4.58807 3.8054 4.58807 4.23153V16H2.00994Z" fill="#2E3D62"/>
</svg>
