<svg width="44" height="40" viewBox="0 0 44 40" fill="none" xmlns="http://www.w3.org/2000/svg">
<path d="M6.56962 20.5V39C6.56962 39.5523 7.01733 40 7.56962 40H16C16.5523 40 17 39.5523 17 39V29C17 28.4477 17.4477 28 18 28H25.9494C26.5017 28 26.9494 28.4477 26.9494 29V39C26.9494 39.5523 27.3971 40 27.9494 40H35.8481C36.4004 40 36.8481 39.5523 36.8481 39V20.5C36.8481 19.9477 37.2958 19.5 37.8481 19.5H42.3005C43.2284 19.5 43.6559 18.3459 42.9519 17.7413L37.1966 12.7993C36.9754 12.6093 36.8481 12.3322 36.8481 12.0406V6C36.8481 5.44772 36.4004 5 35.8481 5H32.6076C32.0553 5 31.6076 5.44772 31.6076 6V6.32322C31.6076 7.17799 30.6046 7.63875 29.9561 7.08189L22.3603 0.559415C21.9856 0.237647 21.4321 0.237647 21.0574 0.559415L1.04808 17.7413C0.344054 18.3459 0.771581 19.5 1.69954 19.5H5.56962C6.1219 19.5 6.56962 19.9477 6.56962 20.5Z" fill="white"/>
</svg>
