<svg width="66" height="10" viewBox="0 0 66 10" fill="none" xmlns="http://www.w3.org/2000/svg">
<path d="M3.65269 3.75H0L2.57485 6.125L1.01796 10L4.97006 7.125L8.62275 10L7.18563 6.125L10 3.75H6.34731L4.97006 0L3.65269 3.75Z" fill="#2E3D62"/>
<path d="M17.6527 3.75H14L16.5749 6.125L15.018 10L18.9701 7.125L22.6228 10L21.1856 6.125L24 3.75H20.3473L18.9701 0L17.6527 3.75Z" fill="#2E3D62"/>
<path d="M31.6527 3.75H28L30.5749 6.125L29.018 10L32.9701 7.125L36.6228 10L35.1856 6.125L38 3.75H34.3473L32.9701 0L31.6527 3.75Z" fill="#2E3D62"/>
<path d="M45.6527 3.75H42L44.5749 6.125L43.018 10L46.9701 7.125L50.6228 10L49.1856 6.125L52 3.75H48.3473L46.9701 0L45.6527 3.75Z" fill="#2E3D62"/>
<path d="M59.6527 3.75H56L58.5749 6.125L57.018 10L60.9701 7.125L64.6228 10L63.1856 6.125L66 3.75H62.3473L60.9701 0L59.6527 3.75Z" fill="#2E3D62"/>
</svg>
